<?xml version="1.0" standalone="no"?>
<!DOCTYPE svg PUBLIC "-//W3C//DTD SVG 20010904//EN"
 "http://www.w3.org/TR/2001/REC-SVG-20010904/DTD/svg10.dtd">
<svg version="1.0" xmlns="http://www.w3.org/2000/svg"
 width="441.000000pt" height="441.000000pt" viewBox="0 0 441.000000 441.000000"
 preserveAspectRatio="xMidYMid meet">
<metadata>
Created by potrace 1.11, written by Peter Selinger 2001-2013
</metadata>
<g transform="translate(0.000000,441.000000) scale(0.100000,-0.100000)"
fill="#000000" stroke="none">
<path d="M1517 3454 c-4 -4 -7 -76 -7 -161 l0 -153 -130 0 -130 0 0 -280 0
-279 -152 -3 -153 -3 0 -60 0 -60 153 -3 152 -3 0 -89 0 -89 -152 -3 -153 -3
0 -60 0 -60 153 -3 152 -3 0 -94 0 -95 -155 0 -156 0 3 -57 3 -58 153 -3 152
-3 0 -94 0 -94 -152 -3 -153 -3 -3 -57 -3 -58 156 0 155 0 0 -125 0 -125 130
0 130 0 0 -160 0 -161 63 3 62 3 3 158 3 157 89 0 89 0 3 -157 3 -158 63 -3
62 -3 0 161 0 160 95 0 95 0 0 -160 0 -160 60 0 60 0 0 160 0 160 95 0 95 0 0
-160 0 -160 60 0 60 0 0 160 0 160 95 0 95 0 0 -160 0 -161 63 3 62 3 3 157 3
158 129 0 130 0 0 125 0 125 150 0 150 0 0 60 0 60 -150 0 -150 0 0 95 0 95
150 0 150 0 0 60 0 60 -150 0 -150 0 0 95 0 95 150 0 150 0 0 65 0 65 -150 0
-150 0 0 90 0 90 150 0 150 0 0 65 0 65 -150 0 -150 0 0 280 0 280 -130 0
-129 0 -3 158 -3 157 -60 0 -60 0 -3 -157 -3 -158 -94 0 -95 0 0 160 0 161
-57 -3 -58 -3 -3 -157 -3 -158 -94 0 -94 0 -3 158 -3 157 -57 3 -58 3 0 -161
0 -160 -95 0 -94 0 -3 158 -3 157 -60 0 -60 0 -3 -157 -3 -158 -89 0 -89 0 -3
158 -3 157 -55 3 c-31 2 -59 0 -63 -4z m1513 -1249 l0 -815 -830 0 -830 0 0
815 0 815 830 0 830 0 0 -815z"/>
<path d="M1540 2665 l0 -46 43 3 c42 3 42 3 42 43 0 40 0 40 -42 43 l-43 3 0
-46z"/>
<path d="M2770 2665 l0 -45 45 0 45 0 0 45 0 45 -45 0 -45 0 0 -45z"/>
<path d="M1820 2205 l0 -375 375 0 375 0 0 375 0 375 -375 0 -375 0 0 -375z
m230 100 c10 -9 20 -25 23 -36 4 -15 0 -19 -18 -19 -12 0 -28 7 -35 15 -20 25
-59 19 -70 -11 -15 -38 -12 -87 6 -112 18 -26 37 -28 58 -6 22 22 20 44 -4 44
-13 0 -20 7 -20 20 0 17 7 20 45 20 45 0 45 0 45 -35 0 -19 -5 -45 -11 -58
-22 -48 -97 -62 -143 -26 -24 19 -26 26 -26 98 0 79 7 98 45 120 25 14 82 7
105 -14z m222 -5 c24 -30 23 -82 -2 -105 -10 -9 -40 -20 -65 -22 l-45 -6 0
-43 c0 -37 -3 -44 -20 -44 -19 0 -20 7 -20 126 l0 127 67 -6 c53 -4 71 -10 85
-27z m100 -66 c2 -79 6 -99 21 -108 12 -8 22 -8 35 0 13 9 18 30 22 105 5 88
6 94 28 97 22 3 22 1 22 -98 0 -94 -2 -103 -25 -125 -17 -18 -35 -25 -62 -25
-72 1 -93 36 -93 159 0 90 0 91 25 91 24 0 24 -1 27 -96z"/>
<path d="M2160 2250 c0 -30 2 -31 38 -28 32 3 37 6 37 28 0 22 -5 25 -37 28
-36 3 -38 2 -38 -28z"/>
<path d="M1540 2509 l0 -40 43 3 c41 3 42 4 45 41 l3 37 -45 0 -46 0 0 -41z"/>
<path d="M2770 2510 l0 -40 45 0 45 0 0 40 0 40 -45 0 -45 0 0 -40z"/>
<path d="M1540 2355 l0 -46 43 3 c42 3 42 3 42 43 0 40 0 40 -42 43 l-43 3 0
-46z"/>
<path d="M2772 2358 c3 -43 3 -43 43 -43 40 0 40 0 43 43 l3 42 -46 0 -46 0 3
-42z"/>
<path d="M1540 2205 l0 -46 43 3 c42 3 42 3 42 43 0 40 0 40 -42 43 l-43 3 0
-46z"/>
<path d="M2770 2205 l0 -45 45 0 45 0 0 45 0 45 -45 0 -45 0 0 -45z"/>
<path d="M1540 2045 l0 -46 43 3 c42 3 42 3 42 43 0 40 0 40 -42 43 l-43 3 0
-46z"/>
<path d="M2772 2048 c3 -43 3 -43 43 -43 40 0 40 0 43 43 l3 42 -46 0 -46 0 3
-42z"/>
<path d="M1540 1895 l0 -46 43 3 c42 3 42 3 42 43 0 40 0 40 -42 43 l-43 3 0
-46z"/>
<path d="M2770 1895 l0 -45 45 0 45 0 0 45 0 45 -45 0 -45 0 0 -45z"/>
<path d="M1540 1739 l0 -40 43 3 c41 3 42 4 45 41 l3 37 -45 0 -46 0 0 -41z"/>
<path d="M2770 1740 l0 -40 45 0 45 0 0 40 0 40 -45 0 -45 0 0 -40z"/>
<path d="M1540 1585 l0 -46 43 3 c42 3 42 3 42 43 0 40 0 40 -42 43 l-43 3 0
-46z"/>
<path d="M1694 1616 c-3 -8 -4 -27 -2 -43 3 -25 7 -28 46 -31 l42 -3 0 45 0
46 -40 0 c-26 0 -43 -5 -46 -14z"/>
<path d="M1850 1585 l0 -45 40 0 40 0 0 45 0 45 -40 0 -40 0 0 -45z"/>
<path d="M2000 1585 l0 -46 43 3 c42 3 42 3 42 43 0 40 0 40 -42 43 l-43 3 0
-46z"/>
<path d="M2154 1616 c-3 -8 -4 -27 -2 -43 3 -25 7 -28 46 -31 l42 -3 0 45 0
46 -40 0 c-26 0 -43 -5 -46 -14z"/>
<path d="M2310 1585 l0 -46 43 3 c42 3 42 3 42 43 0 40 0 40 -42 43 l-43 3 0
-46z"/>
<path d="M2464 1616 c-3 -8 -4 -27 -2 -43 3 -25 7 -28 46 -31 l42 -3 0 45 0
46 -40 0 c-26 0 -43 -5 -46 -14z"/>
<path d="M2620 1585 l0 -45 40 0 40 0 0 45 0 45 -40 0 -40 0 0 -45z"/>
<path d="M2770 1585 l0 -45 45 0 45 0 0 45 0 45 -45 0 -45 0 0 -45z"/>
</g>
</svg>
